<?xml version="1.0" standalone="no"?><!DOCTYPE svg PUBLIC "-//W3C//DTD SVG 1.1//EN" "http://www.w3.org/Graphics/SVG/1.1/DTD/svg11.dtd"><svg t="1767946376257" class="icon" viewBox="0 0 1024 1024" version="1.1" xmlns="http://www.w3.org/2000/svg" p-id="20979" xmlns:xlink="http://www.w3.org/1999/xlink" width="200" height="200"><path d="M925.158 87c44.648 0 80.842 36.194 80.842 80.842v742.316c0 44.648-36.194 80.842-80.842 80.842H98.842C54.194 991 18 954.806 18 910.158V167.842C18 123.194 54.194 87 98.842 87h252.069v66c0 36.633 29.4 66.4 65.892 66.991l1.108 0.009h0.178c37.003 0 67-29.997 67-67l-0.001-66h74.823v66c0 36.633 29.4 66.4 65.892 66.991l1.108 0.009h0.178c37.003 0 67-29.997 67-67l-0.001-66h231.07z" fill="#A1D06B" p-id="20980"></path><path d="M418 47c27.614 0 50 22.386 50 50v58c0 27.614-22.386 50-50 50s-50-22.386-50-50V97c0-27.614 22.386-50 50-50z m209 0c27.614 0 50 22.386 50 50v58c0 27.614-22.386 50-50 50s-50-22.386-50-50V97c0-27.614 22.386-50 50-50zM18 333.196h988v576.962c0 44.648-36.194 80.842-80.842 80.842H98.842C54.194 991 18 954.806 18 910.158V333.196z" fill="#19A15F" p-id="20981"></path><path d="M368 519l134.737 123.098L424 849.932l531.109 135.591c12.989-5.991 21.913-11.592 26.772-16.803 17.577-18.848 24.119-39.275 24.119-51.047V654.1L643.685 427l-234.392 10.642L368 519z" fill="#128D51" opacity=".604" p-id="20982"></path><path d="M424 849.932l127.28-335.388H368.63c0-16.838-0.21-46.02-0.63-87.544h275.685L656 504.028 528.818 867.213 424 849.933z" fill="#FFFFFF" p-id="20983"></path></svg>