<?xml version="1.0" standalone="no"?><!DOCTYPE svg PUBLIC "-//W3C//DTD SVG 1.1//EN" "http://www.w3.org/Graphics/SVG/1.1/DTD/svg11.dtd"><svg t="1767946309211" class="icon" viewBox="0 0 1024 1024" version="1.1" xmlns="http://www.w3.org/2000/svg" p-id="14593" xmlns:xlink="http://www.w3.org/1999/xlink" width="200" height="200"><path d="M86.89664 0m66.064516 0l627.612903 0q66.064516 0 66.064516 66.064516l0 891.870968q0 66.064516-66.064516 66.064516l-627.612903 0q-66.064516 0-66.064516-66.064516l0-891.870968q0-66.064516 66.064516-66.064516Z" fill="#7ED321" p-id="14594"></path><path d="M219.025672 132.129032m66.064516 0l363.354839 0q66.064516 0 66.064516 66.064516l0 297.290323q0 66.064516-66.064516 66.064516l-363.354839 0q-66.064516 0-66.064516-66.064516l0-297.290323q0-66.064516 66.064516-66.064516Z" fill="#E4FFC7" p-id="14595"></path><path d="M516.315995 693.677419m33.032258 0l132.129032 0q33.032258 0 33.032258 33.032258l0 0q0 33.032258-33.032258 33.032258l-132.129032 0q-33.032258 0-33.032258-33.032258l0 0q0-33.032258 33.032258-33.032258Z" fill="#FFFFFF" p-id="14596"></path><path d="M516.315995 825.806452m33.032258 0l132.129032 0q33.032258 0 33.032258 33.032258l0 0q0 33.032258-33.032258 33.032258l-132.129032 0q-33.032258 0-33.032258-33.032258l0 0q0-33.032258 33.032258-33.032258Z" fill="#FFFFFF" p-id="14597"></path><path d="M243.799866 762.219355H417.219221a28.903226 28.903226 0 0 1 0 57.806451H243.799866a28.903226 28.903226 0 1 1 0-57.806451z" fill="#FFFFFF" p-id="14598"></path><path d="M301.606317 877.832258v-173.419355a28.903226 28.903226 0 0 1 57.806452 0v173.419355a28.903226 28.903226 0 1 1-57.806452 0z" fill="#FFFFFF" p-id="14599"></path></svg>