<?xml version="1.0" standalone="no"?><!DOCTYPE svg PUBLIC "-//W3C//DTD SVG 1.1//EN" "http://www.w3.org/Graphics/SVG/1.1/DTD/svg11.dtd"><svg t="1767946261210" class="icon" viewBox="0 0 1024 1024" version="1.1" xmlns="http://www.w3.org/2000/svg" p-id="9372" xmlns:xlink="http://www.w3.org/1999/xlink" width="200" height="200"><path d="M812.145778 0a123.676444 123.676444 0 0 1 123.71437 123.71437V934.115556a74.183111 74.183111 0 0 1-74.183111 74.183111H199.566222A123.71437 123.71437 0 0 1 75.851852 884.584296V284.141037c0-19.683556 7.812741-38.570667 21.731555-52.489481L307.503407 21.731556A74.221037 74.221037 0 0 1 359.992889 0zM204.382815 472.974222C189.62963 465.995852 189.62963 485.527704 189.62963 485.527704v219.742815c0 14.639407 12.553481 8.343704 12.553481 8.343703l60.833185-34.967703s23.74163 37.774222 94.435556 82.526814c70.542222 44.714667 178.36563 58.026667 265.671111 11.908741 87.343407-46.26963 142.677333-132.247704 142.677333-132.247704L699.392 595.437037c-33.147259 56.471704-79.416889 94.776889-118.670222 109.681778-60.112593 22.831407-109.226667 19.64563-161.678222-7.964445-49.038222-22.376296-82.526815-64.739556-82.526815-64.739555l58.709333-33.829926s20.214519-8.457481-2.806518-18.849185c-17.408-10.012444-50.479407-28.975407-84.195556-48.241778l-16.801185-9.595259c-41.832296-23.893333-80.668444-45.852444-87.04-48.886519z m424.239407-242.650074c-70.580148-44.752593-178.251852-58.026667-265.709037-11.908741-87.305481 46.193778-142.639407 132.209778-142.639407 132.209778L286.72 395.946667c33.147259-56.433778 79.416889-94.738963 118.670222-109.681778 60.112593-22.831407 109.226667-19.607704 161.716148 7.964444 49.038222 22.376296 82.526815 64.739556 82.526815 64.739556l-58.709333 33.867852s-20.252444 8.419556 2.768592 18.849185l84.195556 48.241778 16.801185 9.595259c41.832296 23.893333 80.668444 45.852444 87.04 48.848593 14.677333 6.97837 14.677333-12.515556 14.677334-12.515556v-219.591111c0-14.639407-12.591407-8.343704-12.591408-8.343704l-60.795259 34.967704s-23.74163-37.774222-94.435556-82.526815z" fill="#EA9000" p-id="9373"></path></svg>