<?xml version="1.0" standalone="no"?><!DOCTYPE svg PUBLIC "-//W3C//DTD SVG 1.1//EN" "http://www.w3.org/Graphics/SVG/1.1/DTD/svg11.dtd"><svg t="1767946289646" class="icon" viewBox="0 0 1024 1024" version="1.1" xmlns="http://www.w3.org/2000/svg" p-id="12159" xmlns:xlink="http://www.w3.org/1999/xlink" width="200" height="200"><path d="M599.04 660.48m-281.6 0a281.6 281.6 0 1 0 563.2 0 281.6 281.6 0 1 0-563.2 0Z" fill="#FED847" p-id="12160"></path><path d="M337.3568 868.22912l-34.24256-23.552 482.89792-686.17216 18.87232 10.31168c57.97888 31.51872 79.84128 103.7824 49.05984 162.1504L662.272 672.62464a116.992 116.992 0 0 1-73.2672 55.79776 124.2624 124.2624 0 0 1-91.83232-11.01824l20.23424-36.07552a83.52768 83.52768 0 0 0 60.85632 7.24992 75.70432 75.70432 0 0 0 47.52384-35.95264L817.4592 310.9376a78.42816 78.42816 0 0 0-19.61984-97.03424L337.3568 868.22912z m-94.59712 73.37984a107.13088 107.13088 0 0 1-24.4224-2.85696 103.5776 103.5776 0 0 1-64.60416-46.3872 101.376 101.376 0 0 1-12.46208-77.9264 103.70048 103.70048 0 0 1 101.3248-79.03232c8.2432 0 16.44544 0.96256 24.46336 2.84672a103.48544 103.48544 0 0 1 64.58368 46.39744 101.50912 101.50912 0 0 1 12.47232 77.9264 103.71072 103.71072 0 0 1-101.35552 79.03232z m-0.16384-164.97664a62.19776 62.19776 0 0 0-60.76416 47.43168 60.86656 60.86656 0 0 0 7.48544 46.7456 62.06464 62.06464 0 0 0 38.7584 27.83232 63.11936 63.11936 0 0 0 75.4688-45.69088 60.86656 60.86656 0 0 0-7.48544-46.76608 62.06464 62.06464 0 0 0-38.74816-27.82208 61.97248 61.97248 0 0 0-14.71488-1.73056z m0.16384 164.97664a107.13088 107.13088 0 0 1-24.4224-2.85696 103.5776 103.5776 0 0 1-64.60416-46.3872 101.376 101.376 0 0 1-12.46208-77.9264 103.70048 103.70048 0 0 1 101.3248-79.03232c8.2432 0 16.44544 0.96256 24.46336 2.84672a103.48544 103.48544 0 0 1 64.58368 46.39744 101.50912 101.50912 0 0 1 12.47232 77.9264 103.71072 103.71072 0 0 1-101.35552 79.03232z m-0.16384-164.97664a62.19776 62.19776 0 0 0-60.76416 47.43168 60.86656 60.86656 0 0 0 7.48544 46.7456 62.06464 62.06464 0 0 0 38.7584 27.83232 63.11936 63.11936 0 0 0 75.4688-45.69088 60.86656 60.86656 0 0 0-7.48544-46.76608 62.06464 62.06464 0 0 0-38.74816-27.82208 61.97248 61.97248 0 0 0-14.71488-1.73056z m90.73664-116.36736L148.59264 330.9568c-30.7712-58.368-8.91904-130.63168 49.03936-162.16064l18.91328-10.2912L525.14816 596.992l-34.2528 23.552L204.6976 213.88288a78.42816 78.42816 0 0 0-19.6096 97.05472l184.73984 329.29792-36.49536 20.02944zM665.1904 868.22912l-69.92896-99.328 34.26304-23.552 69.91872 99.328-34.2528 23.552z m96.38912 72.88832c-58.22464 0.64512-105.94304-46.00832-106.57792-104.22272a105.3696 105.3696 0 0 1 81.70496-103.89504c8.20224-1.9456 16.5888-2.93888 25.00608-2.93888 58.2144-0.67584 105.95328 45.95712 106.62912 104.18176a105.40032 105.40032 0 0 1-81.75616 103.94624c-8.192 1.95584-16.5888 2.92864-25.00608 2.92864z m0.13312-169.84064a65.91488 65.91488 0 0 0-15.24736 1.82272 64.32768 64.32768 0 0 0-48.10752 77.21984l0.07168 0.27648a65.536 65.536 0 0 0 78.41792 47.47264 64.22528 64.22528 0 0 0-15.13472-126.79168z m-0.13312 169.84064c-58.22464 0.64512-105.94304-46.00832-106.57792-104.22272a105.3696 105.3696 0 0 1 81.70496-103.89504c8.20224-1.9456 16.5888-2.93888 25.00608-2.93888 58.2144-0.67584 105.95328 45.95712 106.62912 104.18176a105.40032 105.40032 0 0 1-81.75616 103.94624c-8.192 1.95584-16.5888 2.92864-25.00608 2.92864z m0.13312-169.84064a65.91488 65.91488 0 0 0-15.24736 1.82272 64.32768 64.32768 0 0 0-48.10752 77.21984l0.07168 0.27648a65.536 65.536 0 0 0 78.41792 47.47264 64.22528 64.22528 0 0 0-15.13472-126.79168z m-232.8576-615.8848h-41.728V72.9088h41.728v82.4832z m0 123.71968h-41.728V196.608h41.728v82.50368z m0 123.71968h-41.728v-82.4832h41.728v82.4832z" fill="" p-id="12161"></path></svg>