<?xml version="1.0" standalone="no"?><!DOCTYPE svg PUBLIC "-//W3C//DTD SVG 1.1//EN" "http://www.w3.org/Graphics/SVG/1.1/DTD/svg11.dtd"><svg t="1767950141497" class="icon" viewBox="0 0 1024 1024" version="1.1" xmlns="http://www.w3.org/2000/svg" p-id="44679" xmlns:xlink="http://www.w3.org/1999/xlink" width="200" height="200"><path d="M922.669867 528.885556c-35.163042 0-66.095095 17.898305-84.259788 45.024149a1.283936 1.283936 0 0 1-0.203989 0.338383c-0.542373 0.80876-1.075146 1.627119-1.59832 2.507874a26.981851 26.981851 0 0 1-21.963702 11.262637c-14.920054 0-27.00105-12.083396-27.00105-26.929053V236.332983H462.958452c-14.920054 0-27.00105-12.092995-27.00105-27.010649 0-9.256337 4.638968-17.418329 11.735413-22.280486a22.275686 22.275686 0 0 1 2.435879-1.485526c27.135443-18.236688 44.961752-49.159142 44.961751-84.259787 0-55.979601-45.300135-101.279736-101.258137-101.279736-55.979601 0-101.279736 45.300135-101.279736 101.279736 0 35.172641 17.879106 66.095095 45.01215 84.259787 0.143993 0.062397 0.275986 0.143993 0.338383 0.20399 0.818359 0.542373 1.617519 1.075146 2.498275 1.617519a26.933853 26.933853 0 0 1 11.284236 21.942103c0 14.920054-12.083396 27.010649-26.941053 27.010649H0v324.766162c0 14.848058 12.083396 26.929054 27.00105 26.929054 9.040348 0 17.079946-4.444578 21.963702-11.262637 0.523174-0.880756 1.075146-1.699115 1.617519-2.507875 0.062397-0.062397 0.122394-0.20399 0.20399-0.338383 18.155092-27.123444 49.077546-45.024149 84.259787-45.024149 55.958002 0 101.279736 45.309735 101.279736 101.279736 0 55.958002-45.319334 101.258137-101.279736 101.258137-35.122244 0-66.035098-17.80711-84.259787-44.961751-0.482376-0.859157-0.962352-1.679916-1.495126-2.41668a26.938653 26.938653 0 0 0-22.280486-11.745012c-14.920054 0-27.00105 12.092995-27.001049 27.010649V1023.980801H324.775761c14.857657 0 26.941053-12.083396 26.941053-27.01065a26.950652 26.950652 0 0 0-11.284236-21.954102c-0.880756-0.532773-1.679916-1.065547-2.498275-1.607919-0.062397-0.071996-0.20399-0.131993-0.338383-0.21599-27.135443-18.155092-45.012149-49.077546-45.012149-84.250187 0-55.970001 45.300135-101.279736 101.279736-101.279736 55.958002 0 101.258137 45.309735 101.258137 101.279736 0 35.110244-17.816709 66.023099-44.961752 84.250187-0.880756 0.482376-1.679916 0.962352-2.435878 1.495126a26.957852 26.957852 0 0 0-11.735413 22.280486c0 14.929654 12.083396 27.010649 27.00105 27.010649h324.703764V699.301035c0-14.920054 12.083396-27.010649 27.00105-27.01065a26.950652 26.950652 0 0 1 22.280486 11.745013c0.542373 0.736763 1.00315 1.557522 1.485526 2.416679 18.236688 27.145043 49.159142 44.961752 84.259787 44.961752 55.979601 0 101.279736-45.300135 101.279736-101.258137-0.050397-55.960402-45.350532-101.270136-101.330133-101.270136z" fill="#6dc3f0" p-id="44680" data-spm-anchor-id="a313x.search_index.0.i16.117c3a81VYMyCR" class="selected"></path></svg>